<?xml version="1.0" encoding="UTF-8"?>
<svg width="16px" height="15px" viewBox="0 0 16 15" version="1.1" xmlns="http://www.w3.org/2000/svg" xmlns:xlink="http://www.w3.org/1999/xlink">
    <!-- Generator: Sketch 40.1 (33804) - http://www.bohemiancoding.com/sketch -->
    <title>Icon : Heart</title>
    <desc>Created with Sketch.</desc>
    <defs></defs>
    <g id="Page-1" stroke="none" stroke-width="1" fill="none" fill-rule="evenodd" stroke-linecap="round" stroke-linejoin="round">
        <g id="Imengine-Material" transform="translate(-193.000000, -1166.000000)" stroke="#8EE5E8" stroke-width="2">
            <g id="Preview" transform="translate(41.000000, 659.000000)">
                <g id="Icon-:-Heart" transform="translate(153.000000, 508.000000)">
                    <path d="M0.545607014,5.625671 L6.51044146,12.9064743 C6.61326611,13.032029 6.78140283,13.0303185 6.88288774,12.9064743 L12.8473873,5.625671 L12.6095843,5.93699188 C12.9605948,5.48848454 13.2121301,4.94794938 13.3270123,4.35370282 C13.3728982,4.11593577 13.3973484,3.86961595 13.3973484,3.61748024 C13.3973484,1.62126337 11.883783,0.00273688689 10.0165275,0.00273688689 C8.4761674,0.00273688689 7.17662461,1.10433386 6.76901028,2.61064798 L6.62833812,2.60791109 C6.22038886,1.10125486 4.92084607,0 3.38048594,0 C1.51356544,0 0,1.61818437 0,3.61474336 C0,3.86687906 0.0241152271,4.11285677 0.0700011454,4.35062382 C0.184883408,4.94487039 0.436418624,5.48574766 0.787764086,5.934255" id="Stroke-1"></path>
                </g>
            </g>
        </g>
    </g>
</svg>